<svg width="18" height="15" viewBox="0 0 18 15" fill="none" xmlns="http://www.w3.org/2000/svg">
<path d="M16.3125 0.653839C17.2266 0.653839 18 1.42728 18 2.34134C18 2.90384 17.7188 3.39603 17.2969 3.71243L9.66797 9.4429C9.24609 9.75931 8.71875 9.75931 8.29688 9.4429L0.667969 3.71243C0.246094 3.39603 0 2.90384 0 2.34134C0 1.42728 0.738281 0.653839 1.6875 0.653839H16.3125ZM7.62891 10.357C8.4375 10.9546 9.52734 10.9546 10.3359 10.357L18 4.59134V11.9038C18 13.1695 16.9805 14.1538 15.75 14.1538H2.25C0.984375 14.1538 0 13.1695 0 11.9038V4.59134L7.62891 10.357Z" fill="black"/>
</svg>
