<svg width="19" height="19" viewBox="0 0 19 19" fill="none" xmlns="http://www.w3.org/2000/svg">
<path d="M17.9648 14.0093L17.1211 17.5601C17.0156 18.0874 16.5938 18.439 16.0664 18.439C7.20703 18.4038 0 11.1968 0 2.33743C0 1.81009 0.316406 1.38821 0.84375 1.28275L4.39453 0.438995C4.88672 0.333527 5.41406 0.614777 5.625 1.07181L7.27734 4.90384C7.45312 5.36087 7.34766 5.88821 6.96094 6.16946L5.0625 7.71634C6.25781 10.1421 8.22656 12.1109 10.6875 13.3062L12.2344 11.4077C12.5156 11.0562 13.043 10.9156 13.5 11.0913L17.332 12.7437C17.7891 12.9898 18.0703 13.5171 17.9648 14.0093Z" fill="black"/>
</svg>
